<?xml version="1.0" encoding="UTF-8"?>
<svg version="1.1" xmlns="http://www.w3.org/2000/svg" width="2761" height="441">
<path d="M0 0 C2.93347477 2.62831767 5.78146954 5.34068882 8.6171875 8.07421875 C9.33132813 8.73679688 10.04546875 9.399375 10.78125 10.08203125 C36.11409497 34.20374419 52.35672918 70.98101075 53.72509766 105.82177734 C53.78674296 108.82335224 53.80277284 111.82203793 53.8046875 114.82421875 C53.81693359 115.819375 53.82917969 116.81453125 53.84179688 117.83984375 C53.85682913 125.61653178 52.83050482 132.18765617 51.6171875 140.07421875 C-41.4428125 140.07421875 -134.5028125 140.07421875 -230.3828125 140.07421875 C-224.1019222 155.51423189 -224.1019222 155.51423189 -215.3828125 169.07421875 C-214.609375 170.09257812 -213.8359375 171.1109375 -213.0390625 172.16015625 C-194.2460803 195.77032692 -165.01094334 209.67345083 -135.4375 213.5703125 C-103.50585806 217.12175247 -69.10728466 210.01156686 -43.3828125 190.07421875 C-35.65377394 183.58401539 -35.65377394 183.58401539 -29.16113281 175.94140625 C-25.47164609 172.28469121 -21.56160425 172.41557673 -16.55966568 172.37817383 C-14.41924309 172.39497812 -12.2805772 172.44115378 -10.140625 172.48828125 C-8.64706125 172.49948265 -7.15347534 172.50801838 -5.65988159 172.51400757 C-1.7433503 172.53683267 2.17182949 172.59569771 6.08782959 172.66223145 C10.0896171 172.72379272 14.09162468 172.75105187 18.09375 172.78125 C25.9355136 172.8454503 33.77618207 172.94774938 41.6171875 173.07421875 C36.88074194 187.59544788 27.53671063 200.59424395 17.6171875 212.07421875 C17.14700195 212.62271484 16.67681641 213.17121094 16.19238281 213.73632812 C-13.10092015 247.57138219 -56.38114121 268.89381313 -101.00732422 272.27294922 C-149.91240618 275.6667617 -198.71010663 263.5362324 -236.3828125 231.07421875 C-266.33516415 204.92089701 -288.3942228 169.57445794 -291.3828125 129.07421875 C-293.21601712 85.12112943 -281.4797957 45.82596008 -251.3828125 13.07421875 C-224.3588042 -16.27701797 -188.51064191 -34.17960377 -149.3828125 -40.92578125 C-148.35800781 -41.10367188 -148.35800781 -41.10367188 -147.3125 -41.28515625 C-95.43797243 -49.82919609 -39.54154114 -34.65425331 0 0 Z M-210.91015625 53.74609375 C-215.7409916 59.25428814 -219.7041819 64.9072026 -223.3203125 71.26171875 C-223.68584229 71.90246338 -224.05137207 72.54320801 -224.42797852 73.20336914 C-227.1236889 78.14182993 -228.54723176 82.56747654 -230.3828125 88.07421875 C-156.7928125 88.07421875 -83.2028125 88.07421875 -7.3828125 88.07421875 C-12.18112582 75.59860412 -17.01284991 66.13892584 -25.3828125 56.07421875 C-26.02734375 55.28273437 -26.671875 54.49125 -27.3359375 53.67578125 C-44.97928027 32.96118993 -70.79616542 20.46034073 -97.3828125 16.07421875 C-98.87941406 15.79964844 -98.87941406 15.79964844 -100.40625 15.51953125 C-141.64676501 9.83705105 -182.33851109 23.54052144 -210.91015625 53.74609375 Z " fill="#FFFFFF" transform="translate(2612.3828125,153.92578125)"/>
<path d="M0 0 C2.99083808 2.68514085 5.90980226 5.43902298 8.8203125 8.2109375 C9.53832031 8.87609375 10.25632812 9.54125 10.99609375 10.2265625 C36.17407448 34.2440351 52.54554254 71.23687403 53.93017578 105.96655273 C53.98992655 108.96538841 54.00589961 111.9615305 54.0078125 114.9609375 C54.02005859 115.95609375 54.03230469 116.95125 54.04492188 117.9765625 C54.05995413 125.75325053 53.03362982 132.32437492 51.8203125 140.2109375 C-41.2396875 140.2109375 -134.2996875 140.2109375 -230.1796875 140.2109375 C-223.90896551 155.65968524 -223.90896551 155.65968524 -215.1796875 169.2109375 C-214.78297852 169.7363916 -214.38626953 170.2618457 -213.97753906 170.80322266 C-195.20153383 195.35477954 -165.6175483 209.56435364 -135.33984375 213.671875 C-103.43305482 217.37954788 -68.87316286 210.12426202 -43.1796875 190.2109375 C-35.45064894 183.72073414 -35.45064894 183.72073414 -28.95800781 176.078125 C-25.26852109 172.42140996 -21.35847925 172.55229548 -16.35654068 172.51489258 C-14.21611809 172.53169687 -12.0774522 172.57787253 -9.9375 172.625 C-8.44393625 172.6362014 -6.95035034 172.64473713 -5.45675659 172.65072632 C-1.5402253 172.67355142 2.37495449 172.73241646 6.29095459 172.7989502 C10.2927421 172.86051147 14.29474968 172.88777062 18.296875 172.91796875 C26.1386386 172.98216905 33.97930707 173.08446813 41.8203125 173.2109375 C40.57387089 175.91379544 39.32178812 178.61379736 38.06640625 181.3125 C37.71783569 182.06990479 37.36926514 182.82730957 37.01013184 183.60766602 C31.86561133 194.63461395 24.75726522 204.02010137 16.8203125 213.2109375 C15.98757813 214.17902344 15.15484375 215.14710938 14.296875 216.14453125 C-15.46002481 250.03080207 -59.46614466 269.39960639 -104.078125 272.6796875 C-153.69630684 275.70371505 -201.43994654 261.54443628 -239.10546875 228.65625 C-267.64591689 203.25557014 -288.29128288 167.91640034 -291.1796875 129.2109375 C-293.01618626 85.25910443 -281.2751135 45.96098427 -251.1796875 13.2109375 C-224.15069429 -16.14571342 -188.32921371 -34.03914419 -149.1796875 -40.7890625 C-148.15488281 -40.96695313 -148.15488281 -40.96695313 -147.109375 -41.1484375 C-95.52589193 -49.64454059 -39.24485599 -34.68986354 0 0 Z M-210.7421875 53.953125 C-219.90236053 64.48173852 -225.37072465 74.98628965 -230.1796875 88.2109375 C-156.5896875 88.2109375 -82.9996875 88.2109375 -7.1796875 88.2109375 C-11.6561701 76.28519511 -11.6561701 76.28519511 -17.8046875 65.5859375 C-18.22580811 64.97532471 -18.64692871 64.36471191 -19.08081055 63.7355957 C-36.96298335 38.48767854 -63.88056685 22.59919004 -94.1015625 16.71875 C-95.11734375 16.55117187 -96.133125 16.38359375 -97.1796875 16.2109375 C-98.67628906 15.93636719 -98.67628906 15.93636719 -100.203125 15.65625 C-141.31740995 9.99116288 -182.38066629 23.60283859 -210.7421875 53.953125 Z " fill="#FFFFFF" transform="translate(811.1796875,153.7890625)"/>
<path d="M0 0 C6.16564569 5.53821996 11.44000161 11.49596371 16.48974609 18.08178711 C17.59769531 19.46624023 17.59769531 19.46624023 18.72802734 20.87866211 C38.32884093 45.92978829 48.95261613 76.83100576 48.69555664 108.55615234 C48.67713945 110.90790542 48.67504883 113.25926575 48.67529297 115.61108398 C48.67038131 117.12866547 48.66455454 118.64624434 48.65771484 120.16381836 C48.65660202 120.85562698 48.6554892 121.54743561 48.65434265 122.26020813 C48.54081574 134.03071746 48.54081574 134.03071746 46.48974609 136.08178711 C44.98864069 136.18358479 43.48276298 136.21576525 41.97821712 136.22045231 C40.99739192 136.22592675 40.01656671 136.2314012 39.00601953 136.23704153 C37.9155759 136.23801964 36.82513227 136.23899775 35.7016449 136.24000549 C34.55331226 136.24494347 33.40497962 136.24988145 32.22184902 136.25496906 C29.02026421 136.26772586 25.81870305 136.27598324 22.61710036 136.28239572 C19.16990184 136.2903773 15.72272569 136.30408273 12.27554321 136.31710815 C6.29835647 136.33890285 0.32116751 136.35703634 -5.65603828 136.37271309 C-14.29817176 136.39538454 -22.9402805 136.42353109 -31.58239304 136.45303237 C-45.6021997 136.50074178 -59.62201644 136.54399685 -73.6418457 136.58447266 C-87.26424953 136.62381057 -100.88664438 136.66523268 -114.5090332 136.70947266 C-115.34811624 136.71219693 -116.18719927 136.7149212 -117.05170906 136.71772803 C-121.26096256 136.73140722 -125.47021593 136.74512755 -129.67946923 136.75886834 C-164.62304553 136.8728857 -199.56664084 136.97968338 -234.51025391 137.08178711 C-233.5847997 139.46427915 -232.65292315 141.84392112 -231.71728516 144.22241211 C-231.45886841 144.88966309 -231.20045166 145.55691406 -230.9342041 146.24438477 C-226.74182372 156.85685502 -219.96940608 165.53647769 -212.51025391 174.08178711 C-211.62466797 175.11239258 -211.62466797 175.11239258 -210.72119141 176.16381836 C-191.41617449 197.04215163 -159.87459187 208.78978332 -132.03710938 210.20776367 C-95.58586174 211.31044357 -63.88303636 200.71729132 -36.66650391 176.22241211 C-34.42131047 174.13787986 -34.42131047 174.13787986 -32.78826904 171.48347473 C-30.51025391 169.08178711 -30.51025391 169.08178711 -27.48565674 168.48051453 C-26.30429138 168.49161758 -25.12292603 168.50272064 -23.90576172 168.51416016 C-23.25168839 168.51343002 -22.59761505 168.51269989 -21.92372131 168.51194763 C-19.76941957 168.51542137 -17.61730109 168.55426465 -15.46337891 168.59350586 C-13.96695131 168.60283494 -12.47050841 168.60995061 -10.97406006 168.61494446 C-7.04125579 168.63400737 -3.10937936 168.68310038 0.82305908 168.73846436 C4.83812916 168.7896731 8.85334962 168.81246186 12.86865234 168.83764648 C20.74277538 168.8912213 28.61614522 168.97652379 36.48974609 169.08178711 C35.6833675 173.76519789 33.89881826 177.42737154 31.55224609 181.51928711 C31.15183105 182.22085938 30.75141602 182.92243164 30.33886719 183.64526367 C23.35854409 195.6571574 15.12387983 206.10746503 5.48974609 216.08178711 C4.21357422 217.45270508 4.21357422 217.45270508 2.91162109 218.85131836 C-28.27255157 251.48266072 -74.10087429 267.55782158 -118.50927734 269.05810547 C-151.14365044 269.65546423 -182.81249867 262.67395699 -211.51025391 247.08178711 C-212.41831787 246.60056396 -212.41831787 246.60056396 -213.34472656 246.10961914 C-226.47559478 239.13506303 -237.73069521 230.29142956 -248.51025391 220.08178711 C-249.00493164 219.62497559 -249.49960938 219.16816406 -250.00927734 218.69750977 C-278.72777375 192.07325449 -294.46317539 154.90090203 -296.51025391 116.08178711 C-297.71925849 73.94466519 -281.09844836 35.53249174 -252.51025391 5.08178711 C-239.6580825 -8.12873118 -224.84704297 -18.48330965 -208.51025391 -26.91821289 C-207.83236816 -27.27012695 -207.15448242 -27.62204102 -206.45605469 -27.98461914 C-139.04722003 -62.50915341 -56.05218829 -49.4384917 0 0 Z M-158.51025391 15.08178711 C-159.16413086 15.25307129 -159.81800781 15.42435547 -160.49169922 15.60083008 C-188.15958842 22.99740755 -212.87154145 41.79663788 -227.50585938 66.32006836 C-230.81141553 72.1180492 -233.20102392 77.53563716 -234.51025391 84.08178711 C-161.25025391 84.08178711 -87.99025391 84.08178711 -12.51025391 84.08178711 C-20.6168187 57.05990445 -40.43338314 37.5892901 -64.88525391 24.33178711 C-72.52488445 20.3397165 -80.16133342 17.30060788 -88.51025391 15.08178711 C-89.20828125 14.88713867 -89.90630859 14.69249023 -90.62548828 14.49194336 C-112.56959112 8.56529246 -136.65973375 9.00882149 -158.51025391 15.08178711 Z " fill="#FFFFFF" transform="translate(1472.51025390625,157.918212890625)"/>
<path d="M0 0 C0.58426758 0.41604492 1.16853516 0.83208984 1.77050781 1.26074219 C10.45062066 7.52612415 18.26924158 14.61775938 26 22 C26.65484375 22.60199219 27.3096875 23.20398438 27.984375 23.82421875 C44.5169493 39.4514378 56.36145319 60.68967013 66 81 C66 81.33 66 81.66 66 82 C64.67210449 82.16218018 64.67210449 82.16218018 63.31738281 82.32763672 C62.04217773 82.48506348 60.76697266 82.64249023 59.453125 82.8046875 C58.745047 82.89120575 58.03696899 82.977724 57.30743408 83.06686401 C53.05019802 83.59435187 48.80392837 84.16814139 44.56054688 84.79785156 C39.64826025 85.52331738 34.72962202 86.15301919 29.79882812 86.73876953 C27.75497721 86.99768786 25.71485388 87.28781163 23.6796875 87.60791016 C7.12313278 90.17766953 7.12313278 90.17766953 1.93353271 86.55911255 C-1.74876844 82.84186949 -4.31549656 78.59256723 -6.80865479 74.02375793 C-15.25820135 59.67037263 -31.85263532 48.93951413 -46 41 C-46.58942383 40.6690332 -47.17884766 40.33806641 -47.78613281 39.99707031 C-85.6020082 19.09934964 -129.84323604 16.50649679 -171 28 C-190.52029858 33.72327465 -208.35481606 44.15895904 -224 57 C-224.83015625 57.6703125 -225.6603125 58.340625 -226.515625 59.03125 C-248.97615084 77.89123353 -263.20174178 107.09068281 -266 136 C-268.2258908 167.20118233 -258.00231792 196.15358841 -238 220 C-237.33226562 220.81984375 -236.66453125 221.6396875 -235.9765625 222.484375 C-230.93841324 228.44789862 -225.17252296 233.24732737 -219 238 C-218.14664063 238.66902344 -217.29328125 239.33804687 -216.4140625 240.02734375 C-183.18475124 265.22374343 -140.53154169 273.76228405 -99.65576172 268.39794922 C-71.93797659 264.24461315 -45.43382656 253.1299077 -24 235 C-23.49275391 234.57638184 -22.98550781 234.15276367 -22.46289062 233.71630859 C-15.18062087 227.58083481 -9.12361334 220.84593137 -3.375 213.26171875 C-2.95992188 212.72337402 -2.54484375 212.1850293 -2.1171875 211.63037109 C-0.78072373 209.78845175 -0.78072373 209.78845175 0.5 206.58203125 C3.49285568 203.4909725 4.18167653 203.58131179 8.34765625 203.50390625 C10.90992446 203.62462265 13.44529326 203.78972518 16 204 C16.80943054 204.06048523 17.61886108 204.12097046 18.45281982 204.18328857 C24.1246342 204.61209683 29.78750004 205.11643983 35.44995117 205.65405273 C38.4550086 205.93916115 41.46078348 206.21540584 44.46679688 206.49023438 C46.39327653 206.66876048 48.31971061 206.84777925 50.24609375 207.02734375 C51.58213905 207.1508445 51.58213905 207.1508445 52.94517517 207.27684021 C57.33379695 207.69559107 61.659855 208.20254102 66 209 C55.777946 231.71567555 43.17654088 250.98495934 26 269 C24.90945313 270.16982422 24.90945313 270.16982422 23.796875 271.36328125 C-11.6017398 308.26961483 -65.67377482 327.95275086 -116.1015625 329.203125 C-174.88053792 329.91303771 -228.53444373 310.62485103 -271.7265625 270.46484375 C-277.6409655 264.68777209 -282.95443251 258.54536676 -288 252 C-288.79148437 250.97519531 -289.58296875 249.95039063 -290.3984375 248.89453125 C-312.77627636 219.15357563 -324.74856397 182.95110731 -324.4375 145.8125 C-324.43379395 145.01051178 -324.43008789 144.20852356 -324.42626953 143.38223267 C-324.24722985 116.01459259 -318.32341668 89.86907849 -304.97802734 65.77197266 C-304.01800534 64.03262175 -303.09644589 62.2722188 -302.17578125 60.51171875 C-286.08288982 30.72131386 -260.13622176 6.73499236 -231 -10 C-230.37963867 -10.35803711 -229.75927734 -10.71607422 -229.12011719 -11.08496094 C-159.141583 -51.04793762 -65.683879 -46.81833564 0 0 Z " fill="#FFFFFF" transform="translate(324,102)"/>
<path d="M0 0 C2.98066753 2.65022292 5.83595542 5.42241048 8.6875 8.2109375 C9.69168285 9.15473811 10.69690873 10.09743008 11.703125 11.0390625 C38.11393358 36.12658261 54.82952306 72.96720556 55.96875 109.375 C56.21982224 123.21535712 56.0561891 136.73925751 52.6875 150.2109375 C52.49945801 150.9848584 52.31141602 151.7587793 52.11767578 152.55615234 C45.19528705 180.1631012 30.90403071 202.51885176 11.6875 223.2109375 C11.11 223.85417969 10.5325 224.49742187 9.9375 225.16015625 C-20.48048596 257.54716362 -66.79998676 273.04941588 -110.12792969 275.11328125 C-132.63719326 275.80353772 -153.41946402 272.34646732 -174.88769531 265.93212891 C-219.54390869 252.6503675 -268.69023443 259.11466344 -309.54052734 281.20263672 C-313.21310111 283.29243138 -316.71569564 285.6370637 -320.17578125 288.05859375 C-320.88089844 288.43886719 -321.58601563 288.81914062 -322.3125 289.2109375 C-323.3025 288.8809375 -324.2925 288.5509375 -325.3125 288.2109375 C-324.64605469 287.5303125 -323.97960938 286.8496875 -323.29296875 286.1484375 C-296.67528651 258.39912574 -280.90561613 220.61927897 -281.3125 182.0234375 C-281.60244743 171.79866927 -283.01533187 162.17978031 -285.3125 152.2109375 C-293.46210465 113.76940613 -289.17181077 72.6270844 -267.48876953 38.96777344 C-241.49460091 0.14377231 -202.69939347 -27.52454231 -156.61328125 -37.01171875 C-102.12900459 -47.50222601 -42.85968843 -36.86037997 0 0 Z M-198.3125 46.2109375 C-199.07820313 46.83355469 -199.84390625 47.45617187 -200.6328125 48.09765625 C-218.56088047 62.99606813 -230.04496742 86.17168672 -232.3125 109.2109375 C-233.0743265 122.02833424 -232.09055984 134.68514921 -227.125 146.6484375 C-221.56442605 162.29962826 -224.425562 181.68594723 -231.21875 196.39453125 C-234.19977599 202.62434423 -237.3825596 208.52655942 -241.3125 214.2109375 C-237.17698579 212.85620009 -233.06191053 211.49064706 -228.984375 209.96875 C-227.81390625 209.53304687 -226.6434375 209.09734375 -225.4375 208.6484375 C-223.80167969 208.02775391 -223.80167969 208.02775391 -222.1328125 207.39453125 C-204.01924988 201.78266062 -183.23064472 202.16673199 -165.3125 208.2109375 C-164.68875488 208.41944336 -164.06500977 208.62794922 -163.42236328 208.84277344 C-160.27176035 209.89644925 -157.12698349 210.9655977 -153.984375 212.04296875 C-122.67249832 222.00281037 -87.68117408 218.53407294 -58.40527344 203.96362305 C-50.43685695 199.79437568 -43.23445454 194.96945618 -36.3125 189.2109375 C-35.37921875 188.44136719 -34.4459375 187.67179688 -33.484375 186.87890625 C-15.70420879 171.50750558 -2.98533854 149.09579589 -1.08935547 125.42504883 C0.09164625 96.55697014 -9.16144245 73.45358743 -28.39453125 51.875 C-48.8954267 30.1950178 -79.59895558 18.03537516 -109.078125 16.8984375 C-142.21810473 16.10949472 -173.10274296 23.86043405 -198.3125 46.2109375 Z " fill="#897D96" transform="translate(2021.3125,151.7890625)"/>
<path d="M0 0 C21.78 0 43.56 0 66 0 C75.13211469 20.75480612 84.25938936 41.50470677 93.16015625 62.359375 C96.16459379 69.39649562 99.20433411 76.41814606 102.25 83.4375 C102.79256894 84.68822935 103.33513073 85.93896179 103.87768555 87.18969727 C104.71347899 89.11639053 105.5492793 91.04308081 106.38514709 92.96974182 C109.80439929 100.8522458 113.21495399 108.73850994 116.625 116.625 C117.12018127 117.77015579 117.12018127 117.77015579 117.62536621 118.93844604 C122.85092329 131.02361216 128.07144906 143.11094836 133.29052734 155.19891357 C134.49691852 157.99286343 135.70350524 160.78672876 136.91015625 163.58056641 C137.70833974 165.42870817 138.50651685 167.27685269 139.3046875 169.125 C139.69718689 170.03381927 140.08968628 170.94263855 140.49407959 171.8789978 C142.78403626 177.18200239 145.0719599 182.48587821 147.35824585 187.79046631 C151.5576709 197.53328332 155.76661886 207.27188343 160 217 C160.50337891 218.15693359 161.00675781 219.31386719 161.52539062 220.50585938 C162.8001372 223.42440504 164.08448484 226.33839968 165.375 229.25 C165.72643066 230.054375 166.07786133 230.85875 166.43994141 231.6875 C167.93397712 235.5262862 167.93397712 235.5262862 171 238 C176.1614328 228.06021345 180.71323559 217.94170544 185.0748291 207.62991333 C187.03896888 202.98746478 189.01857054 198.35160331 190.99609375 193.71484375 C191.40739532 192.74949203 191.8186969 191.78414032 192.24246216 190.78953552 C196.69146041 180.35720182 201.21833895 169.95912475 205.75 159.5625 C212.94981995 143.03505823 220.11407701 126.49263161 227.25 109.9375 C227.71560333 108.85734619 228.18120667 107.77719238 228.66091919 106.66430664 C230.49660194 102.40557062 232.33224391 98.14681702 234.16773987 93.88800049 C238.79043255 83.16346025 243.42558709 72.44432631 248.06396484 61.7265625 C251.76123363 53.18241775 255.45161961 44.63533877 259.13671875 36.0859375 C260.45205974 33.03552789 261.76747961 29.9851523 263.08291626 26.93478394 C263.93780753 24.95166798 264.79228584 22.96837395 265.64633179 20.9848938 C266.83351224 18.22776889 268.02208846 15.4712495 269.2109375 12.71484375 C269.74257759 11.47853714 269.74257759 11.47853714 270.28495789 10.21725464 C270.61421768 9.45454254 270.94347748 8.69183044 271.28271484 7.90600586 C271.5675473 7.24483261 271.85237976 6.58365936 272.14584351 5.90245056 C273.04097233 3.90874292 274.02264379 1.95471241 275 0 C296.78 0 318.56 0 341 0 C339.00327445 5.99017666 336.96600095 11.64633918 334.40234375 17.37109375 C334.05618515 18.153741 333.71002655 18.93638824 333.3533783 19.74275208 C332.60757892 21.42847658 331.86007759 23.11344895 331.11102295 24.79772949 C329.07608005 29.37521326 327.0557247 33.95912575 325.03515625 38.54296875 C324.61721802 39.49060089 324.19927979 40.43823303 323.76867676 41.4145813 C319.40209772 51.3303808 315.13111742 61.28639701 310.875 71.25 C309.37517017 74.75918733 307.87512576 78.26828291 306.375 81.77734375 C306.00857895 82.63463074 305.6421579 83.49191772 305.26463318 84.37518311 C301.49165502 93.19782229 297.68698727 102.0066583 293.875 110.8125 C293.54736664 111.5694516 293.21973328 112.3264032 292.88217163 113.10629272 C291.2400847 116.89982863 289.59749341 120.69314582 287.95458984 124.48632812 C285.02502505 131.25065723 282.09916376 138.01658805 279.17340088 144.78256226 C278.51616327 146.30245219 277.85889602 147.82232931 277.20159912 149.3421936 C272.03461047 161.28984064 266.87279556 173.23971698 261.71304321 185.19049072 C259.30792067 190.76095519 256.90239571 196.3312459 254.49690247 201.90155029 C252.58996648 206.31748803 250.68330544 210.733544 248.77734375 215.14990234 C244.77654678 224.41980685 240.7706218 233.68745299 236.75439453 242.95068359 C235.62015304 245.56716453 234.48825739 248.18463574 233.35888672 250.80322266 C211.47733331 301.49261645 211.47733331 301.49261645 186.71875 313.06640625 C174.88376739 317.50452473 162.47175637 316.69592354 151.0625 311.5625 C130.82907992 300.77659124 119.54515349 279.80211813 111 259.4375 C110.45054386 258.14682552 109.9001385 256.8565548 109.34887695 255.56665039 C108.17391381 252.81543632 107.00293599 250.06257422 105.83447266 247.30859375 C102.98842739 240.61138792 100.08779553 233.93772741 97.1940918 227.26101685 C95.49559155 223.34036704 93.80068782 219.41816311 92.10546875 215.49609375 C91.41977532 213.90998648 90.73406569 212.32388622 90.04833984 210.73779297 C89.7094574 209.95394226 89.37057495 209.17009155 89.02142334 208.36248779 C87.3438925 204.48246473 85.66610249 200.60255375 83.98828125 196.72265625 C83.6588855 195.96094116 83.32948975 195.19922607 82.9901123 194.41442871 C81.99341378 192.10961673 80.99670829 189.80480776 80 187.5 C75.96445867 178.1681352 71.92910242 168.83619054 67.89453125 159.50390625 C61.91264721 145.667629 55.9301822 131.83160469 49.9375 118 C49.43476562 116.83960205 48.93203125 115.6792041 48.4140625 114.48364258 C44.85145559 106.26291828 41.28190439 98.04522095 37.7109375 89.828125 C31.79876731 76.22244144 25.89524645 62.61302503 20 49 C19.53847534 47.93454956 19.07695068 46.86909912 18.60144043 45.7713623 C16.01655565 39.80239351 13.43668156 33.8313063 10.86459351 27.85681152 C10.08744469 26.05319602 9.30884775 24.25020371 8.52871704 22.44787598 C7.45643204 19.96960501 6.38960855 17.48905392 5.32421875 15.0078125 C5.01386688 14.29358124 4.70351501 13.57934998 4.38375854 12.84347534 C4.09687164 12.17212555 3.80998474 11.50077576 3.5144043 10.80908203 C3.26845016 10.23835968 3.02249603 9.66763733 2.76908875 9.07962036 C1.67156145 6.11190027 0.86926248 3.04241868 0 0 Z " fill="#FFFFFF" transform="translate(853,111)"/>
<path d="M0 0 C96.36 0 192.72 0 292 0 C292 18.15 292 36.3 292 55 C252.73 55 213.46 55 173 55 C173 156.64 173 258.28 173 363 C155.18 363 137.36 363 119 363 C119 261.36 119 159.72 119 55 C79.73 55 40.46 55 0 55 C0 36.85 0 18.7 0 0 Z " fill="#FFFFFF" transform="translate(2051,64)"/>
<path d="M0 0 C17.82 0 35.64 0 54 0 C54 140.91 54 281.82 54 427 C36.18 427 18.36 427 0 427 C0 286.09 0 145.18 0 0 Z " fill="#FFFFFF" transform="translate(2707,0)"/>
<path d="M0 0 C17.82 0 35.64 0 54 0 C54 140.91 54 281.82 54 427 C36.18 427 18.36 427 0 427 C0 286.09 0 145.18 0 0 Z " fill="#FFFFFF" transform="translate(426,0)"/>
<path d="M0 0 C1.07056641 -0.00386719 2.14113281 -0.00773437 3.24414062 -0.01171875 C4.78811523 -0.00978516 4.78811523 -0.00978516 6.36328125 -0.0078125 C7.7541394 -0.00612061 7.7541394 -0.00612061 9.1730957 -0.00439453 C11.6875 0.125 11.6875 0.125 15.6875 1.125 C15.6875 18.945 15.6875 36.765 15.6875 55.125 C10.0775 55.125 4.4675 55.125 -1.3125 55.125 C-31.32683565 56.69606288 -56.10638094 68.83062119 -76.3125 91.125 C-93.09800742 111.50047143 -98.59856067 135.43989631 -98.63134766 161.27636719 C-98.6406645 162.9727017 -98.65083573 164.66903171 -98.66178894 166.36535645 C-98.68890518 170.93473853 -98.70418335 175.50409011 -98.71721697 180.07353115 C-98.73292861 184.86214604 -98.75969289 189.65069936 -98.7852478 194.43927002 C-98.83189414 203.49116831 -98.86870639 212.54307838 -98.90192068 221.59503484 C-98.94024245 231.90712613 -98.98962603 242.21915537 -99.03990483 252.53119421 C-99.14301415 273.7290892 -99.2308825 294.92701061 -99.3125 316.125 C-117.1325 316.125 -134.9525 316.125 -153.3125 316.125 C-153.38038163 292.94951432 -153.43557735 269.77410991 -153.46793652 246.59854984 C-153.4833649 235.83625272 -153.50437685 225.07402204 -153.53881836 214.31176758 C-153.56884464 204.92465668 -153.58810423 195.53759393 -153.59476548 186.15043634 C-153.59865545 181.18612256 -153.60771218 176.22194646 -153.62969017 171.25767708 C-153.65026498 166.5717643 -153.65629203 161.88604407 -153.65182304 157.20009041 C-153.65263896 155.49307199 -153.65847823 153.78604617 -153.67011642 152.07906723 C-153.76543867 137.35860279 -152.01071384 123.30152453 -147.625 109.1875 C-147.37008789 108.35959961 -147.11517578 107.53169922 -146.85253906 106.67871094 C-140.60387403 87.06671208 -130.90698725 69.59957591 -117.3125 54.125 C-116.60609375 53.29742187 -115.8996875 52.46984375 -115.171875 51.6171875 C-86.20662998 18.3800898 -43.89349579 -0.16147209 0 0 Z " fill="#FFFFFF" transform="translate(1713.3125,110.875)"/>
</svg>
